<svg width="3054" height="585" viewBox="0 0 3054 585" fill="none" xmlns="http://www.w3.org/2000/svg">
<path d="M383.216 322.422C378.617 338.129 371.726 353.414 362.324 367.501C309.468 434.545 227.125 448.571 176.168 414.894C147.272 395.796 132.727 361.41 134.087 322.422H178.742C179.774 346.422 189.495 367.291 207.634 379.279C243.696 403.112 294.411 389.196 327.025 340.335C330.878 334.562 334.306 328.559 337.296 322.422H383.216Z" fill="white"/>
<path d="M263.144 288.937C262.265 289.936 261.4 290.961 260.555 292.014C239.74 317.944 237.463 350.219 255.469 364.102C273.451 377.965 304.859 368.244 325.674 342.394L354.873 364.907C346.11 375.823 335.62 385.224 324.037 392.54C312.455 399.856 300.021 404.936 287.488 407.471C274.955 410.006 262.583 409.943 251.122 407.288C239.662 404.633 229.351 399.438 220.813 392.021C212.275 384.604 205.687 375.118 201.449 364.137C197.211 353.155 195.41 340.906 196.157 328.133C196.903 315.359 200.181 302.326 205.791 289.822C211.402 277.318 219.228 265.603 228.796 255.387L263.144 288.937Z" fill="white"/>
<path d="M144.789 262.578C149.389 246.871 156.281 231.585 165.684 217.497C218.54 150.453 300.882 136.427 351.839 170.104C380.736 189.203 395.282 223.589 393.92 262.578H349.266C348.234 238.577 338.513 217.708 320.373 205.719C284.312 181.886 233.596 195.802 200.983 244.663C197.129 250.437 193.701 256.441 190.71 262.578H144.789Z" fill="white"/>
<path d="M261.745 288.614C262.625 287.614 263.491 286.588 264.338 285.533C285.152 259.603 287.428 227.328 269.423 213.444C251.44 199.58 220.032 209.303 199.216 235.156L170.011 212.638C178.774 201.721 189.264 192.321 200.846 185.005C212.429 177.689 224.863 172.609 237.396 170.074C249.929 167.539 262.3 167.601 273.76 170.257C285.221 172.912 295.533 178.106 304.071 185.523C312.609 192.94 319.196 202.427 323.434 213.408C327.672 224.39 329.473 236.639 328.726 249.413C327.98 262.187 324.703 275.22 319.092 287.725C313.482 300.229 305.656 311.944 296.088 322.16L261.745 288.614Z" fill="white"/>
<path d="M470.328 426L532.268 160H646.268L708.208 426H651.588L638.288 365.2H540.248L526.948 426H470.328ZM548.228 324.54H630.308L603.708 203.7H574.828L548.228 324.54ZM733.401 426V255L775.201 213.2H884.641V261.84H787.361V426H733.401ZM911.897 426V160H965.857V213.2H1067.32L1110.64 256.52V382.68L1067.32 426H911.897ZM965.857 380.4H1056.68V258.8H965.857V380.4ZM1201.5 378.88H1296.12V207.12H1201.5V378.88ZM1147.54 426V160H1309.04L1350.08 201.04V384.96L1309.04 426H1147.54ZM1386.09 385.72V253.48L1426.37 213.2H1576.09V332.52H1440.05V380.4H1568.49V426H1426.37L1386.09 385.72ZM1440.05 302.88L1528.97 299.08V255.76H1440.05V302.88ZM1648.23 426L1596.55 213.2H1651.27L1687.75 380.4H1719.67L1756.15 213.2H1810.11L1758.43 426H1648.23ZM1832.56 384.96V201.04L1873.6 160H2011.92L2052.96 201.04V380.78L1997.48 418.78V207.12H1888.04V381.54L2063.6 411.94V461.72L1873.6 426L1832.56 384.96ZM2287.68 213.2V426H2133.4L2091.6 384.2V213.2H2145.56V378.88H2233.72V213.2H2287.68ZM2324.59 385.72V253.48L2364.87 213.2H2514.59V332.52H2378.55V380.4H2506.99V426H2364.87L2324.59 385.72ZM2378.55 302.88L2467.47 299.08V255.76H2378.55V302.88ZM2548.73 426V381.92H2685.53V335.18H2548.73V253.48L2589.01 213.2H2739.49V257.28H2602.69V301.74H2739.49V386.86L2700.35 426H2548.73ZM2776.27 179L2830.23 160V220.8H2912.31V266.4H2830.23V380.4H2912.31V426H2818.07L2776.27 384.2V179Z" fill="white"/>
</svg>
