<svg width="2523" height="932" viewBox="0 0 2523 932" fill="none" xmlns="http://www.w3.org/2000/svg">
<path d="M511.818 600L573.758 334H687.758L749.698 600H693.078L679.778 539.2H581.738L568.438 600H511.818ZM589.718 498.54H671.798L645.198 377.7H616.318L589.718 498.54ZM774.891 600V429L816.691 387.2H926.131V435.84H828.851V600H774.891ZM953.387 600V334H1007.35V387.2H1108.81L1152.13 430.52V556.68L1108.81 600H953.387ZM1007.35 554.4H1098.17V432.8H1007.35V554.4ZM1188.27 558.96V375.04L1229.31 334H1367.63L1408.67 375.04V554.78L1353.19 592.78V381.12H1243.75V555.54L1419.31 585.94V635.72L1229.31 600L1188.27 558.96ZM1643.39 387.2V600H1489.11L1447.31 558.2V387.2H1501.27V552.88H1589.43V387.2H1643.39ZM1680.3 559.72V427.48L1720.58 387.2H1870.3V506.52H1734.26V554.4H1862.7V600H1720.58L1680.3 559.72ZM1734.26 476.88L1823.18 473.08V429.76H1734.26V476.88ZM1904.44 600V555.92H2041.24V509.18H1904.44V427.48L1944.72 387.2H2095.2V431.28H1958.4V475.74H2095.2V560.86L2056.06 600H1904.44ZM2131.98 353L2185.94 334V394.8H2268.02V440.4H2185.94V554.4H2268.02V600H2173.78L2131.98 558.2V353Z" fill="white"/>
<path d="M444.217 489.921C439.618 505.629 432.727 520.916 423.324 535.003C370.468 602.047 288.125 616.073 237.169 582.396C208.271 563.298 193.726 528.911 195.088 489.921H239.743C240.775 513.923 250.495 534.793 268.635 546.782C304.697 570.614 355.412 556.697 388.025 507.837C391.879 502.063 395.307 496.059 398.297 489.921H444.217Z" fill="white"/>
<path d="M324.138 456.433C323.259 457.433 322.393 458.459 321.547 459.513C300.732 485.442 298.455 517.717 316.46 531.6C334.442 545.465 365.852 535.743 386.667 509.891L415.869 532.406C407.107 543.322 396.616 552.723 385.034 560.039C373.451 567.355 361.017 572.435 348.484 574.97C335.951 577.504 323.579 577.442 312.118 574.787C300.658 572.132 290.346 566.938 281.808 559.521C273.27 552.104 266.683 542.617 262.445 531.636C258.207 520.654 256.406 508.406 257.153 495.633C257.899 482.859 261.176 469.825 266.786 457.321C272.397 444.817 280.224 433.102 289.792 422.886L324.138 456.433Z" fill="white"/>
<path d="M205.79 430.078C210.39 414.37 217.281 399.084 226.684 384.997C279.54 317.953 361.882 303.927 412.839 337.604C441.736 356.702 456.282 391.089 454.92 430.078H410.265C409.233 406.077 399.512 385.207 381.372 373.218C345.311 349.386 294.596 363.303 261.983 412.163C258.129 417.936 254.701 423.94 251.71 430.078L205.79 430.078Z" fill="white"/>
<path d="M322.745 456.115C323.625 455.115 324.491 454.089 325.338 453.034C346.152 427.104 348.428 394.829 330.423 380.945C312.44 367.081 281.032 376.804 260.216 402.657L231.011 380.139C239.774 369.222 250.264 359.821 261.846 352.505C273.429 345.189 285.863 340.11 298.396 337.575C310.929 335.04 323.3 335.103 334.76 337.758C346.221 340.413 356.533 345.606 365.071 353.024C373.609 360.441 380.196 369.928 384.434 380.909C388.672 391.891 390.473 404.139 389.726 416.913C388.98 429.687 385.703 442.721 380.092 455.226C374.482 467.73 366.656 479.445 357.088 489.661L322.745 456.115Z" fill="white"/>
</svg>
