<svg width="260" height="280" viewBox="0 0 260 280" fill="none" xmlns="http://www.w3.org/2000/svg">
<path d="M249.217 169.921C244.618 185.629 237.727 200.916 228.324 215.003C175.468 282.047 93.1254 296.073 42.1686 262.396C13.2712 243.298 -1.27389 208.911 0.0875116 169.921H44.7428C45.7748 193.923 55.4954 214.793 73.6354 226.782C109.697 250.614 160.412 236.697 193.025 187.837C196.879 182.063 200.307 176.059 203.297 169.921H249.217Z" fill="white"/>
<path d="M129.138 136.433C128.259 137.433 127.393 138.459 126.547 139.513C105.732 165.442 103.455 197.717 121.46 211.6C139.442 225.465 170.852 215.743 191.667 189.891L220.869 212.406C212.107 223.322 201.616 232.723 190.034 240.039C178.451 247.355 166.017 252.435 153.484 254.97C140.951 257.504 128.579 257.442 117.118 254.787C105.658 252.132 95.3462 246.938 86.8079 239.521C78.2697 232.104 71.6826 222.617 67.4447 211.636C63.2068 200.654 61.4063 188.406 62.1527 175.633C62.899 162.859 66.1762 149.825 71.7864 137.321C77.3967 124.817 85.2236 113.102 94.7923 102.886L129.138 136.433Z" fill="white"/>
<path d="M10.7904 110.078C15.3901 94.3704 22.281 79.084 31.684 64.9967C84.54 -2.04688 166.882 -16.0729 217.839 17.6041C246.736 36.7021 261.282 71.0887 259.92 110.078L215.265 110.078C214.233 86.0765 204.512 65.2069 186.372 53.2184C150.311 29.3861 99.5962 43.3025 66.9828 92.1627C63.129 97.9365 59.701 103.94 56.7104 110.078L10.7904 110.078Z" fill="white"/>
<path d="M127.745 136.115C128.625 135.115 129.491 134.089 130.338 133.034C151.152 107.104 153.428 74.8286 135.423 60.9454C117.44 47.081 86.0316 56.8042 65.2165 82.6573L36.0114 60.1388C44.7742 49.2224 55.2639 39.8211 66.8464 32.505C78.4289 25.189 90.8634 20.1102 103.396 17.5753C115.929 15.0405 128.3 15.1026 139.76 17.7579C151.221 20.4134 161.533 25.6064 170.071 33.0236C178.609 40.4407 185.196 49.9276 189.434 60.9093C193.672 71.8909 195.473 84.1395 194.726 96.9132C193.98 109.687 190.703 122.721 185.092 135.226C179.482 147.73 171.656 159.445 162.088 169.661L127.745 136.115Z" fill="white"/>
</svg>
