<svg width="1680" height="1029" viewBox="0 0 1680 1029" fill="none" xmlns="http://www.w3.org/2000/svg">
<path d="M102.1 637.52V607.12L149.6 605.22V400.78L102.1 398.88V368.48L166.7 371.52L231.3 368.48V398.88L183.8 400.78V605.22L231.3 607.12V637.52L166.7 634.48L102.1 637.52ZM271.081 636V370H319.721L449.681 596.1V370H483.881V636H435.241L305.281 409.9V636H271.081ZM529.363 605.6V400.4L559.763 370H711.763L742.163 400.4V605.6L711.763 636H559.763L529.363 605.6ZM563.563 400.4V605.6H707.963V400.4H563.563ZM821.844 514.4H954.844V400.4H821.844V514.4ZM989.044 400.4V514.4L963.584 539.86L1009.94 636H973.084L930.144 544.8H821.844V636H787.644V370H958.644L989.044 400.4ZM1068.99 482.1H1198.19V400.4H1068.99V482.1ZM1068.99 605.6H1205.79V512.5H1068.99V605.6ZM1232.39 400.4V476.78L1214.53 493.12L1239.99 515.92V605.6L1209.59 636H1034.79V370H1201.99L1232.39 400.4ZM1272.16 637.52V607.12L1319.66 605.22V400.78L1272.16 398.88V368.48L1336.76 371.52L1401.36 368.48V398.88L1353.86 400.78V605.22L1401.36 607.12V637.52L1336.76 634.48L1272.16 637.52ZM1507.64 636V400.4H1425.94V370H1623.54V400.4H1541.84V636H1507.64Z" fill="white"/>
<path d="M640.724 696.983C702.664 823.775 832.882 911.111 983.498 911.111C1134.11 911.111 1264.33 823.775 1326.27 696.983H1355C1291.2 838.558 1148.86 937.111 983.498 937.111L980.864 937.103C816.626 936.062 675.455 837.805 612 696.983H640.724ZM1142.18 112C1171.39 112 1195.07 135.68 1195.07 164.892C1195.07 170.283 1194.26 175.485 1192.76 180.386C1250.16 214.832 1298.37 263.016 1332.85 320.395H1302.13C1270.59 272.504 1228.54 232.149 1179.26 202.607C1169.71 211.993 1156.62 217.783 1142.18 217.783C1112.97 217.783 1089.29 194.103 1089.29 164.892C1089.29 164.411 1089.29 163.931 1089.31 163.453C1055.71 153.769 1020.21 148.578 983.498 148.578C850.291 148.578 733.04 216.891 664.865 320.395H634.147C705.356 201.878 835.166 122.578 983.498 122.578L986.132 122.587C1024.36 122.829 1061.34 128.34 1096.37 138.426C1105.52 122.628 1122.61 112 1142.18 112Z" fill="white"/>
</svg>
