<svg width="1897" height="585" viewBox="0 0 1897 585" fill="none" xmlns="http://www.w3.org/2000/svg">
<path d="M383.217 322.424C378.618 338.131 371.727 353.417 362.324 367.504C309.468 434.547 227.125 448.573 176.168 414.896C147.272 395.799 132.727 361.412 134.087 322.424H178.742C179.774 346.425 189.495 367.294 207.634 379.282C243.696 403.115 294.411 389.198 327.025 340.338C330.879 334.564 334.307 328.561 337.297 322.424H383.217Z" fill="white"/>
<path d="M263.144 288.938C262.265 289.938 261.4 290.963 260.555 292.016C239.74 317.946 237.463 350.221 255.469 364.104C273.451 377.968 304.859 368.246 325.674 342.396L354.874 364.909C346.111 375.825 335.621 385.226 324.038 392.542C312.456 399.858 300.021 404.938 287.488 407.473C274.955 410.007 262.584 409.945 251.123 407.29C239.663 404.635 229.351 399.44 220.813 392.023C212.275 384.606 205.687 375.12 201.449 364.139C197.211 353.157 195.41 340.908 196.157 328.135C196.903 315.361 200.181 302.328 205.791 289.824C211.402 277.32 219.228 265.605 228.796 255.389L263.144 288.938Z" fill="white"/>
<path d="M144.79 262.578C149.39 246.87 156.281 231.584 165.684 217.496C218.54 150.453 300.882 136.427 351.839 170.104C380.737 189.202 395.282 223.589 393.92 262.578H349.266C348.234 238.577 338.513 217.706 320.373 205.718C284.312 181.885 233.596 195.802 200.983 244.662C197.129 250.436 193.701 256.44 190.71 262.578H144.79Z" fill="white"/>
<path d="M261.745 288.616C262.625 287.616 263.49 286.59 264.337 285.535C285.151 259.605 287.428 227.33 269.423 213.446C251.44 199.582 220.031 209.305 199.216 235.158L170.011 212.64C178.774 201.723 189.264 192.323 200.846 185.007C212.429 177.691 224.863 172.611 237.396 170.076C249.929 167.541 262.3 167.603 273.76 170.259C285.221 172.914 295.532 178.108 304.07 185.525C312.608 192.942 319.196 202.429 323.434 213.41C327.672 224.392 329.473 236.641 328.726 249.415C327.98 262.189 324.703 275.222 319.092 287.727C313.482 300.231 305.656 311.946 296.088 322.162L261.745 288.616Z" fill="white"/>
<path d="M482.108 427.52V384.2L519.728 382.3V203.7L482.108 201.8V158.48L546.708 161.52L611.308 158.48V201.8L573.688 203.7V382.3L611.308 384.2V427.52L546.708 424.48L482.108 427.52ZM648.049 426V213.2H802.329L844.129 255V426H790.169V260.32H702.009V426H648.049ZM881.034 385.72V253.48L921.314 213.2H1034.55L1074.83 253.48V385.72L1034.55 426H921.314L881.034 385.72ZM934.994 381.92H1020.87V257.28H934.994V381.92ZM1111.55 426V255L1153.35 213.2H1262.79V261.84H1165.51V426H1111.55ZM1290.04 426V160H1344V213.2H1445.46L1488.78 256.52V382.68L1445.46 426H1290.04ZM1344 380.4H1434.82V258.8H1344V380.4ZM1525.69 426V213.2H1579.65V426H1525.69ZM1525.69 191.16V153.16H1579.65V191.16H1525.69ZM1619.2 179L1673.16 160V220.8H1755.24V266.4H1673.16V380.4H1755.24V426H1661L1619.2 384.2V179Z" fill="white"/>
</svg>
